<svg width="20" height="17" viewBox="0 0 20 17" fill="none" xmlns="http://www.w3.org/2000/svg">
<path fill-rule="evenodd" clip-rule="evenodd" d="M7.94728 11.3157C7.77128 11.3157 7.59528 11.2488 7.46145 11.1141C6.78495 10.4385 6.41187 9.54013 6.41187 8.58497C6.41187 6.60497 8.02153 4.99438 9.9997 4.99438C10.9512 4.99438 11.8752 5.37847 12.5343 6.04855C12.8001 6.31988 12.7974 6.75438 12.526 7.02022C12.2556 7.28788 11.8211 7.2833 11.5544 7.0138C11.1519 6.60405 10.5854 6.36938 9.9997 6.36938C8.77962 6.36938 7.78687 7.36305 7.78687 8.58497C7.78687 9.17255 8.01695 9.72622 8.43312 10.1424C8.7017 10.411 8.7017 10.8455 8.43403 11.1141C8.29928 11.2488 8.12328 11.3157 7.94728 11.3157Z" fill="#828282"/>
<path fill-rule="evenodd" clip-rule="evenodd" d="M10.52 12.1169C10.1946 12.1169 9.90494 11.8841 9.84444 11.5523C9.77661 11.1792 10.0241 10.8208 10.3981 10.7529C11.2964 10.5898 12.0078 9.87661 12.1691 8.97736C12.2369 8.60428 12.5944 8.35861 12.9675 8.42278C13.3415 8.48969 13.5899 8.84719 13.523 9.22119C13.2599 10.6814 12.1031 11.8401 10.6438 12.1059C10.6025 12.1133 10.5604 12.1169 10.52 12.1169Z" fill="#828282"/>
<mask id="mask0_33749_3793" style="mask-type:alpha" maskUnits="userSpaceOnUse" x="0" y="1" width="16" height="14">
<path fill-rule="evenodd" clip-rule="evenodd" d="M0.833252 1.23901H15.579V14.1623H0.833252V1.23901Z" fill="white"/>
</mask>
<g mask="url(#mask0_33749_3793)">
<path fill-rule="evenodd" clip-rule="evenodd" d="M5.09988 14.1623C4.95138 14.1623 4.80196 14.1137 4.67546 14.0156C3.12538 12.7983 1.81546 11.0135 0.889627 8.85571C0.81446 8.68155 0.81446 8.48538 0.889627 8.31213C1.82554 6.14513 3.14371 4.35121 4.70204 3.12563C7.87921 0.611213 12.1087 0.602963 15.318 3.14396C15.6159 3.37955 15.6663 3.81221 15.4307 4.11013C15.1942 4.40621 14.7634 4.45846 14.4645 4.22196C11.7457 2.06963 8.24313 2.07696 5.55363 4.20546C4.23729 5.2413 3.10704 6.75013 2.27288 8.5853C3.09879 10.4095 4.21896 11.9091 5.52521 12.934C5.82404 13.1686 5.87538 13.6013 5.64071 13.8992C5.50504 14.0715 5.30338 14.1623 5.09988 14.1623Z" fill="#828282"/>
</g>
<mask id="mask1_33749_3793" style="mask-type:alpha" maskUnits="userSpaceOnUse" x="6" y="5" width="14" height="11">
<path fill-rule="evenodd" clip-rule="evenodd" d="M6.99097 5.0127H19.1666V15.9652H6.99097V5.0127Z" fill="white"/>
</mask>
<g mask="url(#mask1_33749_3793)">
<path fill-rule="evenodd" clip-rule="evenodd" d="M10 15.9652C9.14113 15.9652 8.2868 15.8259 7.4618 15.5518C7.10155 15.4317 6.9063 15.0421 7.02638 14.6819C7.14646 14.3207 7.53421 14.1291 7.8963 14.2465C8.58105 14.4747 9.28871 14.5902 10 14.5902C13.1424 14.5902 16.0143 12.3517 17.7275 8.5833C17.3095 7.66755 16.8228 6.83797 16.2783 6.1138C16.05 5.81038 16.1105 5.37863 16.414 5.15038C16.7165 4.92213 17.1482 4.98447 17.3765 5.28697C18.0401 6.16788 18.6231 7.1863 19.1099 8.31013C19.186 8.4843 19.186 8.6823 19.1099 8.85555C17.1885 13.3078 13.7831 15.9652 10 15.9652Z" fill="#828282"/>
</g>
<mask id="mask2_33749_3793" style="mask-type:alpha" maskUnits="userSpaceOnUse" x="2" y="0" width="16" height="17">
<path fill-rule="evenodd" clip-rule="evenodd" d="M2.08325 0.666992H17.9173V16.5006H2.08325V0.666992Z" fill="white"/>
</mask>
<g mask="url(#mask2_33749_3793)">
<path fill-rule="evenodd" clip-rule="evenodd" d="M2.77052 16.5005C2.59452 16.5005 2.41852 16.4336 2.28469 16.2989C2.01611 16.0303 2.01611 15.5958 2.28469 15.3272L16.7442 0.867697C17.0128 0.599114 17.4473 0.599114 17.7159 0.867697C17.9844 1.13628 17.9844 1.5717 17.7159 1.84028L3.25636 16.2989C3.12252 16.4336 2.94652 16.5005 2.77052 16.5005" fill="#828282"/>
</g>
</svg>
